<?xml version="1.0" encoding="utf-8"?>
<!-- Generator: Adobe Illustrator 26.0.0, SVG Export Plug-In . SVG Version: 6.00 Build 0)  -->
<svg version="1.1" id="Layer_1" xmlns="http://www.w3.org/2000/svg" xmlns:xlink="http://www.w3.org/1999/xlink" x="0px" y="0px"
	 viewBox="0 0 664 208.9" style="enable-background:new 0 0 664 208.9;" xml:space="preserve">
<style type="text/css">
	.st0{fill:none;}
	.st1{fill:#FFFFFF;stroke:#000000;stroke-miterlimit:10;}
	.st2{fill:#EFFF00;}
</style>
<path class="st0" d="M-13.7-155.4h694.9v514.2H-13.7V-155.4z"/>
<path class="st1" d="M17.5,78c0,0,4.4,4.2,5.3,8.4v11.8c0,3.4-1.8,9.2-1.8,13.4c0,5,0.9,6.7,1.8,9.2s0.9,2.5,0.9,6.7
	s-0.9,20.2-0.9,20.2l-0.9,12.6l2.6,5.9l3.5-3.4c0,0,0.9,2.5,2.6,5c1.8,2.5,8.8,5,8.8,5l8.8,2.5l28.1-10.9c0,0,3.5,2.5,6.1,3.4
	c2.6,0.8,11.4,5,15.8,5.9c4.4,0.8,7,1.7,10.5,1.7s7-0.8,10.5-2.5c3.5-0.8,7.9-2.5,7.9-2.5l1.8-10.1l-21.1-13.4l-4.4,3.4
	c0,0-1.8-14.3-2.6-21.8c-0.9-7.6-2.6-17.6-2.6-17.6l2.6-1.7c0,0-1.8-13.4-2.6-16.8c0-3.4,1.8-11.8,1.8-13.4s0.9-6.7,0.9-6.7V68
	l-6.1-2.5l-7,2.5l-12.3-5l-11.4,5.9l0.9,6.7h19.3l7.9,5v5l-2.6,2.5c0,0-0.9,8.4-0.9,14.3c-0.9,5.9-0.9,12.6-1.8,19.3
	c-0.9,8.4-2.6,16-5.3,22.7c0,0-10.5,5.9-15.8,8.4c-7.9,2.5-14.9,2.5-14.9,2.5l-12.3-5c-1.8-10.9-3.5-20.2-4.4-27.7
	c-0.9-2.5-0.9-3.4,0-6.7c0-2.5,1.8-11.8,1.8-11.8l-2.6-2.5c0,0,1.8-10.1,2.6-13.4c0.9-3.4,0.9-6.7,1.8-9.2c0-2.5,0.9-5,0.9-5
	L36.9,68c0,0-7-2.5-10.5-3.4c-2.6-0.8-7-1.7-7-1.7h-7c-2.6,0-7,0.8-7,0.8l-5.3,5c0,0,0.9,2.5,1.8,3.4l0.9,1.7l2.6,0.8l3.5,4.2
	c0,0,3.5,0,6.1-0.8C14.9,78.9,17.5,78,17.5,78 M223,161.4c0,0-0.9,0.8-2.6,1.7c-2.6,0.8-6.1,0.8-6.1,0.8l-3.5-4.2
	c0,0,2.6-8.4,1.8-16.8c-1.8-8.4-7.9-19.3-7.9-19.3l14.9-12.6c0,0,3.5-10.9,3.5-12.6c0.9-1.7-0.9-6.7-0.9-10.9v-5.9l-12.3-13.4
	c0,0-11.4-3.4-15.8-4.2c-4.4-0.8-8.8,0-8.8,0l-3.5-4.2l-2.6,3.4c0,0-14.9-1.7-20.2-1.7s-8.8,0.8-12.3,0.8c-3.5,0.8-8.8,1.7-8.8,1.7
	h-1.8c0,0-0.9,2.5,0,5.9s1.8,5,1.8,5l15.8,4.2l1.8-2.5h1.8c0,0,0,4.2,0.9,8.4c0,4.2,0.9,7.6,0.9,7.6l-3.5,6.7c0,0,2.6,16,2.6,21
	c0,5.9-0.9,7.6-0.9,7.6l2.6,5l-2.6,25.2l-18.4,5v7.6l6.1,4.2c0,0,14.9-2.5,20.2-2.5c4.4,0,8.8,0.8,8.8,0.8l1.8-1.7
	c0,0,1.8,0.8,4.4,0.8c2.6,0.8,4.4,0.8,4.4,0.8l5.3-5l-2.6-2.5v-2.5h-7c-2.6,0-8.8-0.8-8.8-0.8l-2.6-2.5v-5.9v-13.4h0.9v-1.7h0.9
	v-8.4l-0.9,0.8l-0.9-9.2l1.8-2.5l19.3,4.2l10.5,9.2l2.6,12.6c0,0-4.4,5-0.9,15.1c2.6,8.4,7,13.4,7,13.4l2.6-2.5l3.5,3.4l2.6-1.7
	c1.8,0.8,4.4,1.7,8.8,1.7l3.5-10.9L223,161.4L223,161.4z M201,106.8c0,0-9.7,2.5-12.3,3.4c-2.6,0.8-3.5,0.8-5.3,1.7h-2.6l-0.9,2.5
	l-4.4-5h-5.3c0,0-0.9-10.1-0.9-15.1c0-5.9-0.9-12.6-0.9-12.6l1.8-0.8c0,0,6.1-0.8,7.9-0.8c2.6,0,8.8-0.8,8.8-0.8l1.8,0.8l7.9-0.8
	l8.8,7.6c0,0-0.9,2.5-0.9,3.4s-0.9,2.5-0.9,2.5l1.8,1.7v4.2L201,106.8L201,106.8z M347.5,89.3c0,0-0.9-6.7-0.9-10.9
	c-0.9-4.2-0.9-7.6-0.9-7.6l-8.8-10.9c0,0-1.8-1.7-3.5-5S329,44.8,329,44.8l-7.9-2.5h-3.5c-1.8,0-3.5-0.8-6.1-0.8h-4.4
	c-0.9,0.8-1.8,0-3.5,0.8c-1.8,0-5.3,1.7-8.8,3.4c-3.5,1.7-7,5.9-8.8,6.7c-0.9,0.8-2.6,3.4-2.6,3.4h-5.3l-1.8-3.4l4.4-21.8l-2.6-7.6
	l2.6-10.9c0,0-1.8-3.4-2.6-5c-0.9-1.7-1.8-4.2-1.8-4.2s-8.8-0.8-14.9-0.8c-9.7-0.8-15.8-2.5-17.5-1.7c-2.6,0.8-3.5,2.5-5.3,5
	c-0.9,2.5-1.8,5-1.8,5s2.6,5,7,7.6s6.1,3.4,8.8,4.2s7,1.7,7,1.7s2.6,10.1,3.5,15.1c0.9,5,1.8,7.6,1.8,10.1c0,3.4-0.9,13.4-1.8,21.8
	c-0.9,8.4-0.9,11.8-0.9,17.6s0.9,10.9,1.8,15.1s1.8,6.7,1.8,10.9c0.9,4.2,0,10.1-0.9,15.1c0,5-1.8,17.6-1.8,17.6h9.7l4.4-4.2h7.9
	l3.5,5h31.6c0,0,7-4.2,11.4-10.1c4.4-5,6.1-8.4,8.8-14.3c2.6-5.9,4.4-11.8,6.1-17.6c0.9-5.9,2.6-15.1,2.6-15.1L347.5,89.3
	L347.5,89.3z M328.2,108.6c-0.9,4.2-1.8,9.2-1.8,9.2s-1.8,1.7-4.4,5c-2.6,3.4-4.4,6.7-4.4,6.7s-2.6,0.8-5.3,3.4
	c-2.6,1.7-3.5,3.4-3.5,3.4s-3.5,0-6.1-1.7c-2.6-1.7-7.9-4.2-14-9.2c-7-4.2-11.4-11.8-11.4-11.8s0.9-1.7,0.9-5c0-3.4-0.9-2.5-0.9-5.9
	c0-3.4,0-5,1.8-11.8c1.8-6.7,2.6-10.1,7.9-18.5c5.3-9.2,8.8-12.6,8.8-12.6V59h4.4c1.8,0,1.8-0.8,4.4-0.8c2.6,0,0.9,0.8,5.3,0.8
	c4.4,0.8,4.4,0,4.4,0s2.6,4.2,5.3,7.6c2.6,2.5,5.3,6.7,5.3,6.7s0,1.7,0.9,5c0,3.4,0.9,6.7,0.9,7.6s-0.9,2.5-0.9,2.5s0.9,2.5,1.8,5.9
	c0.9,3.4,1.8,6.7,1.8,6.7S329,104.4,328.2,108.6L328.2,108.6z M402.9,69.2c0,0-2.6,2.5-2.6,3.4c-0.9,0.8-1.8,0.8-2.6,1.7
	c-0.9,0.8-0.9,0.8-2.6,1.7l-5.3,4.2h-7.9L377.4,70c-0.9-1.7-1.8-2.5-1.8-4.2s0-6.7,0.9-11.8c0.9-5,1.8-7.6,1.8-7.6l7-5
	c3.5-1.7,8.8-5,11.4-5.9c2.6-0.8,3.5-0.8,4.4-1.7h1.8V33c0-0.8,0.9-0.8,2.6-0.8h6.1c2.6,0,2.6,0.8,5.3,0.8h10.5
	c1.8,0.8,5.3,1.7,7,2.5c1.8,0.8,14,4.2,14,4.2s1.8,1.7,3.5,5c2.6,3.4,4.4,5,4.4,5s0.9,10.1,0.9,12.6c0,1.7,0.9,14.3,0.9,15.1v16
	h-1.8c0,0,0.9,4.2,0.9,6.7c0,3.4,0.9,6.7,0.9,6.7s0,0.8-0.9,1.7c-0.9,0.8-0.9,1.7-0.9,1.7s2.6,2.5,4.4,4.2c0.9,1.7,3.5,4.2,3.5,4.2
	s2.6,0,4.4-0.8c2.6,0,7-0.8,7.9-0.8h2.6c0,0,0,6.7,0.9,10.1c0,3.4,0.9,7.6,0.9,7.6l-7.9,8.4c0,0-3.5,0-6.1,0.8
	c-2.6,0-7.9,0.8-7.9,0.8s-5.3-3.4-7.9-5c-2.6-1.7-7-5-7-5l-13.2,8.4l-13.2,4.2h-14.9c-5.3,0-8.8,0-12.3-0.8c-3.5,0-9.7-0.8-9.7-0.8
	s-4.4-5-6.1-6.7c-1.8-1.7-4.4-5-4.4-5s-1.8-8.4-2.6-15.1c-0.9-6.7,0-13.4,0-13.4s1.8-3.4,3.5-5.9c1.8-2.5,4.4-6.7,4.4-6.7
	s13.2-4.2,16.7-5s5.3-1.7,7.9-1.7c2.6,0,1.8,0,6.1-0.8c3.5-0.8,8.8-3.4,12.3-5c2.6-1.7,4.4-2.5,5.3-3.4c0.9-0.8,1.8-1.7,1.8-1.7h2.6
	c1.8,0,4.4-1.7,7-2.5c1.8-0.8,3.5-0.8,3.5-0.8s0.9-0.8,2.6-2.5c1.8-0.8,2.6-1.7,2.6-1.7v-7.6c0,0-4.4-3.4-10.5-5.9
	c-6.1-2.5-9.7-4.2-12.3-5c-3.5-0.8-4.4-1.7-7-1.7c-3.5,0-6.1,0.8-7,1.7c-1.8,0-3.5,0.8-5.3,1.7c-0.9,0.8-1.8,0.8-2.6,2.5
	c-0.9,1.7-1.8,2.5-1.8,3.4s-0.9,0.8-0.9,0.8s0,2.5,0.9,5s3.5,5,3.5,5.9C402,68.3,402.9,69.2,402.9,69.2 M397.6,101.1l-13.2,8.4
	l0.9,12.6l5.3,7.6h23.7c0,0,4.4-0.8,7-2.5c2.6-0.8,7-2.5,7.9-2.5h0.9L438,112c0,0-0.9-4.2-0.9-8.4v-8.4h-7c0,0-5.3,1.7-9.7,2.5
	c-4.4,0.8-3.5,1.7-7,2.5s-5.3,0-7.9,0h-9.7 M497.1,31.4l-11.4,9.2l1.8,5.9c0,0,3.5,0.8,5.3,1.7c2.6,0.8,4.4,0.8,6.1,1.7
	c0.9,0,2.6,0.8,2.6,0.8l2.6,2.5c0,0-1.8,5-1.8,5.9V60l2.6,6.7l2.6,5.9h-6.1v7.6l5.3,6.7c0,0,0,5-1.8,10.1c-1.8,5-3.5,6.7-3.5,6.7
	l1.8,1.7c0,0-2.6,9.2-2.6,10.1v0.8l2.6,4.2c0,0-0.9,4.2-0.9,5.9v3.4l-10.5,5l-5.3,10.1c0,0,3.5,1.7,7,2.5c3.5,0.8,4.4,1.7,8.8,1.7
	c4.4-0.8,6.1-2.5,6.1-2.5s3.5,0.8,6.1,1.7c2.6,0.8,6.1,1.7,6.1,1.7V149l1.8,1.7l2.6-4.2h1.8c1.8,0.8,8.8,1.7,8.8,1.7l5.3-4.2v-5
	l-1.8-1.7c-1.8-1.7-2.6-4.2-2.6-4.2s-2.6,0.8-4.4,0c-1.8,0-9.7-3.4-9.7-3.4s-1.8-23.5-1.8-27.7s-1.8-21-1.8-21l1.8-1.7
	c0,0-0.9-10.1-1.8-11.8v-3.4c0-1.7,0.9-2.5,0.9-2.5s5.3,6.7,7.9,10.9c2.6,4.2,7,13.4,7.9,16.8c1.8,3.4,3.5,6.7,4.4,9.2
	c1.8,2.5,5.3,8.4,5.3,8.4s0-9.2-0.9-15.1c0-5.9-2.6-10.9-3.5-14.3c-0.9-3.4-5.3-11.8-5.3-11.8l1.8-5.9l-8.8-8.4l3.5-10.1l-6.1-5.9
	h-3.5c-2.6,0-4.4-0.8-6.1-0.8c-1.8-0.8-3.5-0.8-3.5-0.8l-1.8,1.7c0,0-4.4-0.8-7.9-1.7C501.5,32.2,497.1,31.4,497.1,31.4
	 M547.1,105.4c0,0,5.3,2.5,7,2.5h6.1v0.8h7.9v7.6l3.5,5L570,123v0.8h0.9l0.9,16.8c0,0-1.8,1.7-2.6,3.4c-0.9,1.7-2.6,4.2-2.6,4.2
	s-3.5,0-7-1.7c-3.5-1.7-5.3-5-5.3-5v-5l-3.5-4.2h-3.5V123l3.5-3.4c0,0-1.8-2.5-2.6-4.2c-0.9-1.7-1.8-3.4-1.8-3.4s0.9-4.2,1.8-5.9
	C547.1,106.2,547.1,105.4,547.1,105.4 M561,104.6h6.1v-6.7c0-4.2,0.9-8.4,0.9-10.9s-0.9-3.4-0.9-5v-4.2c0.9-2.5,1.8-7.6,2.6-9.2
	v-4.2H568l1.8-0.8c0,0,0-2.5-0.9-5.9c-0.9-2.5-0.9-5-0.9-5l1.8-1.7c0.9-0.8,1.8-1.7,1.8-1.7l7.9,1.7c0,0,2.6-1.7,4.4-4.2
	c1.8-2.5,2.6-4.2,3.5-5c0.9-0.8,0.9-2.5,0.9-2.5s-3.5-2.5-5.3-3.4c-1.8-0.8-4.4-3.4-4.4-3.4h-4.4c-3.5,0.8-7,0.8-10.5,1.7
	c-3.5,0-4.4,0.8-7,0c-2.6-0.8-5.3-1.7-5.3-1.7s-5.3,1.7-7,2.5c-1.8,0-4.4,1.7-4.4,1.7l-1.8,6.7l3.5,5c0,0,2.6,0.8,6.1,1.7
	c2.6,0.8,5.3,1.7,6.1,1.7l0.9-0.8l1.8,1.7c0.9,0.8,1.8,1.7,1.8,1.7s0.9,5,0.9,10.1c0.9,5,1.8,10.1,1.8,12.6s0.9,2.5,0,5
	c-1.8,0.8-3.5,10.1-3.5,10.1s0.9,2.5,1.8,5.9L561,104.6"/>
<g>
	<path d="M224.4,144.2L664,158.5v50.4l-439.6-14.3L224.4,144.2L224.4,144.2z"/>
</g>
<g>
	<path class="st2" d="M347.3,165.6c0-2.5,1.8-4.2,4.4-4.2h15.8c2.6,0,4.4,1.7,4.4,4.2v3.4l-6.1,0.8v-4.2h-12.3v11.8h12.3v-4.2
		l6.1,1.7v3.4c0,2.5-1.8,4.2-4.4,4.2h-15.8c-2.6,0-4.4-1.7-4.4-4.2L347.3,165.6L347.3,165.6z M317.4,160.6h6.1v21h-6.1V160.6z
		 M425.7,162.4h6.1v21h-6.1V162.4z M396.4,161.9h6.1v21h-6.1V161.9z"/>
	<path class="st2" d="M387.1,161.8l25.4,0.8v4.2h-25.4V161.8z M502.3,164.8l15.8,12.6v-11.8h6.1v21h-5.3L504,173.2l-0.9,12.6H497
		l0.9-21L502.3,164.8L502.3,164.8z M474.6,164.3l-19.3-0.8c-2.6,0-4.4,1.7-4.4,4.2v13.4c0,2.5,1.8,4.2,4.4,4.2h19.3
		c2.6,0,4.4-1.7,4.4-4.2v-12.6C479,166,477.2,164.3,474.6,164.3z M471.9,180.2l-14.9-0.8v-10.9h14.9V180.2z M554.8,165.6l12.3,21h-7
		l-2.6-4.2h-12.3l-2.6,4.2h-6.1l13.2-21H554.8L554.8,165.6z M555.7,177.4l-3.5-6.7l-3.5,5.9h7V177.4z M579.8,166.5h21.1
		c1.8,0,3.5,1.7,3.5,3.4v5.9c0,1.7-1.8,3.4-3.5,3.4h-2.6l9.7,7.6h-8.8l-8.8-7.6h-3.5v7.6h-6.1L579.8,166.5L579.8,166.5z M586,170.7
		v4.2h11.4c0.9,0,0.9,0,0.9-0.8v-2.5c0-0.8,0-0.8-0.9-0.8H586z M614.2,167.2h8.8l7,7.6l7-6.7h7.9l-12.3,10.9v9.2h-6.1v-9.2
		L614.2,167.2L614.2,167.2z M277.5,159.9h14c6.1,0,10.5,5,10.5,10.1v0.8c0,5.9-5.3,10.1-10.5,10.1h-16.7v-21H277.5z M281,175.9h8.8
		c2.6,0,5.3-2.5,5.3-5V170c0-2.5-2.6-5-5.3-5l-8.8-0.8V175.9L281,175.9z"/>
</g>
</svg>
